<?xml version="1.0" encoding="utf-8"?>
<!-- Generator: Adobe Illustrator 26.0.2, SVG Export Plug-In . SVG Version: 6.00 Build 0)  -->
<svg version="1.1" xmlns="http://www.w3.org/2000/svg" xmlns:xlink="http://www.w3.org/1999/xlink" x="0px" y="0px"
	 viewBox="0 0 425 289" style="enable-background:new 0 0 425 289;" xml:space="preserve">
<style type="text/css">
	.st0{display:none;}
	.st1{fill:url(#SVGID_1_);}
	.st2{fill:url(#SVGID_00000069376585336312358970000006636743873232146310_);}
	.st3{fill:url(#SVGID_00000036217078674851694150000005712805849123217038_);}
	.st4{fill:url(#SVGID_00000047742428744329928050000015882241310644030654_);}
</style>
<g id="logo" class="st0">
</g>
<g id="Capa_2">
	<g>
		
			<radialGradient id="SVGID_1_" cx="18.6888" cy="281.9997" r="171.6342" gradientTransform="matrix(0.9581 -0.2863 0.2863 0.9581 -43.4046 -113.3743)" gradientUnits="userSpaceOnUse">
			<stop  offset="0.1667" style="stop-color:#1B75B8"/>
			<stop  offset="0.3314" style="stop-color:#1B79B8"/>
			<stop  offset="0.4957" style="stop-color:#1A85B8"/>
			<stop  offset="0.66" style="stop-color:#1A99B8"/>
			<stop  offset="0.8242" style="stop-color:#19B5B8"/>
			<stop  offset="0.987" style="stop-color:#17D9B8"/>
			<stop  offset="1" style="stop-color:#17DCB8"/>
		</radialGradient>
		<path class="st1" d="M183.3,241.7c15,8.1,33.7,2.5,41.8-12.5l0,0c8.1-15,2.5-33.7-12.5-41.8L96.2,124.5
			c-15-8.1-33.7-2.5-41.8,12.5l0,0c-8.1,15-2.5,33.7,12.5,41.8l68.8,37L183.3,241.7z"/>
		
			<linearGradient id="SVGID_00000122721692158503403280000006592822163740642716_" gradientUnits="userSpaceOnUse" x1="44.748" y1="266.0275" x2="261.9613" y2="266.0275" gradientTransform="matrix(0.9581 -0.2863 0.2863 0.9581 -43.4046 -113.3743)">
			<stop  offset="0" style="stop-color:#17DCB8"/>
			<stop  offset="1.298367e-02" style="stop-color:#17D9B8"/>
			<stop  offset="0.1758" style="stop-color:#19B5B8"/>
			<stop  offset="0.34" style="stop-color:#1A99B8"/>
			<stop  offset="0.5043" style="stop-color:#1A85B8"/>
			<stop  offset="0.6686" style="stop-color:#1B79B8"/>
			<stop  offset="0.8333" style="stop-color:#1B75B8"/>
		</linearGradient>
		<path style="fill:url(#SVGID_00000122721692158503403280000006592822163740642716_);" d="M159,8.1c-15-8.1-33.7-2.5-41.8,12.5
			L54.4,137c-7.9,14.7-3.4,32.6,11,41l0.6,0.4l0.8,0.4c0.1,0,0.1,0.1,0.2,0.1c0.1,0,0.1,0.1,0.2,0.1l68.6,37
			c-37-20-12.3-76.7-12.3-76.7l0,0l48.2-89.2C179.6,34.9,174,16.2,159,8.1z"/>
	</g>
	<g>
		
			<linearGradient id="SVGID_00000078726711375957291450000008241694540665314973_" gradientUnits="userSpaceOnUse" x1="270.4253" y1="-82.5555" x2="428.6615" y2="-82.5555" gradientTransform="matrix(-0.9581 0.2863 -0.2863 -0.9581 576.2661 -80.1491)">
			<stop  offset="9.556049e-03" style="stop-color:#A40054"/>
			<stop  offset="0.1433" style="stop-color:#A70652"/>
			<stop  offset="0.3241" style="stop-color:#B1174B"/>
			<stop  offset="0.5319" style="stop-color:#C13440"/>
			<stop  offset="0.7597" style="stop-color:#D65B30"/>
			<stop  offset="1" style="stop-color:#F28D1D"/>
		</linearGradient>
		<path style="fill:url(#SVGID_00000078726711375957291450000008241694540665314973_);" d="M220.6,39.3
			c-15.3-8.3-34.4-2.6-42.6,12.7l0,0c-8.3,15.3-2.5,34.4,12.7,42.6l118.6,64c15.3,8.3,34.4,2.6,42.6-12.7l0,0
			c8.3-15.3,2.6-34.4-12.7-42.6l-70.1-37.7L220.6,39.3z"/>
		
			<linearGradient id="SVGID_00000039855049865758702620000002189521277837456002_" gradientUnits="userSpaceOnUse" x1="302.7981" y1="-154.3708" x2="524.1996" y2="-154.3708" gradientTransform="matrix(-0.9581 0.2863 -0.2863 -0.9581 576.2661 -80.1491)">
			<stop  offset="0" style="stop-color:#F28D1D"/>
			<stop  offset="0.2403" style="stop-color:#D65B30"/>
			<stop  offset="0.4681" style="stop-color:#C13440"/>
			<stop  offset="0.6759" style="stop-color:#B1174B"/>
			<stop  offset="0.8567" style="stop-color:#A70652"/>
			<stop  offset="0.9904" style="stop-color:#A40054"/>
		</linearGradient>
		<path style="fill:url(#SVGID_00000039855049865758702620000002189521277837456002_);" d="M245.3,277.4
			c15.3,8.3,34.4,2.5,42.6-12.7L352,146c8.1-15,3.4-33.2-11.2-41.8l-0.6-0.4l-0.8-0.4c-0.1,0-0.1-0.1-0.2-0.1
			c-0.1,0-0.1-0.1-0.2-0.1l-69.9-37.7c37.7,20.3,12.5,78.2,12.5,78.2l0,0l-49.1,90.9C224.3,250,230,269.1,245.3,277.4z"/>
	</g>
</g>
</svg>
